<svg version="1.1" id="Layer_1" xmlns="http://www.w3.org/2000/svg" xmlns:xlink="http://www.w3.org/1999/xlink" x="0px" y="0px"
	 width="100%" viewBox="0 0 919 320" enable-background="new 0 0 919 320" xml:space="preserve">
<path fill="#222831" opacity="1.000000" stroke="none" 
	d="
M706.000000,321.000000 
	C470.666656,321.000000 235.833328,321.000000 1.000000,321.000000 
	C1.000000,214.333328 1.000000,107.666664 1.000000,1.000000 
	C307.333344,1.000000 613.666687,1.000000 920.000000,1.000000 
	C920.000000,107.666664 920.000000,214.333328 920.000000,321.000000 
	C848.833313,321.000000 777.666687,321.000000 706.000000,321.000000 
M214.898239,169.597717 
	C214.466293,171.881638 214.011734,174.161530 213.605865,176.450073 
	C208.848526,203.275726 212.001968,228.968323 226.452164,252.332947 
	C242.756348,278.695312 266.660919,293.873535 297.898834,294.888611 
	C327.698761,295.856995 357.556213,294.909760 387.378479,295.403900 
	C399.597198,295.606323 407.666382,288.036713 407.414551,275.557434 
	C406.903595,250.236160 407.418945,224.895782 407.166595,199.566696 
	C407.090698,191.953552 406.385040,184.264206 405.095917,176.759552 
	C398.621185,139.066879 368.865662,108.058289 331.383850,100.354721 
	C297.774139,93.446976 267.673615,100.801949 242.017975,124.187378 
	C228.638321,136.383087 220.123291,151.556366 214.898239,169.597717 
M603.639771,275.127991 
	C603.641602,258.795044 603.598633,242.461823 603.706665,226.129593 
	C603.718994,224.267914 603.978394,221.792450 605.147949,220.659821 
	C610.347351,215.624725 615.919861,210.975006 621.464844,206.091324 
	C622.901917,207.603363 624.011047,208.617279 624.943359,209.773697 
	C646.507324,236.522873 668.005859,263.325043 689.630615,290.024933 
	C695.570007,297.358124 705.304993,298.053711 712.713806,292.059570 
	C720.409119,285.833649 722.012207,276.067261 716.067017,268.678925 
	C701.174377,250.171066 686.067566,231.835587 671.053345,213.425537 
	C662.996826,203.546936 654.953979,193.657150 646.704163,183.525833 
	C649.939880,180.515869 652.918030,177.644653 656.002502,174.892639 
	C674.866882,158.061935 693.821472,141.331696 712.601990,124.408157 
	C719.735657,117.979858 719.692932,109.297508 712.984497,101.910057 
	C706.938171,95.251740 697.475220,94.717239 690.726196,100.678291 
	C685.118774,105.631126 679.513184,110.586494 673.945251,115.583595 
	C653.640686,133.806549 633.365295,152.062134 613.042175,170.264435 
	C610.292358,172.727310 607.333801,174.957062 603.642944,177.971878 
	C603.642944,174.836807 603.642883,172.861404 603.642883,170.885986 
	C603.642822,126.719482 603.650391,82.552979 603.622681,38.386501 
	C603.621155,35.899662 603.291809,33.414738 603.182068,30.925962 
	C602.691895,19.812693 590.409546,13.805534 581.422729,16.686750 
	C572.604065,19.514042 569.031677,24.584000 569.030212,35.240520 
	C569.019226,115.073555 569.023621,194.906586 569.029358,274.739624 
	C569.029480,276.071045 568.960938,277.426300 569.174072,278.729645 
	C570.001526,283.790009 571.747803,288.296417 576.553955,291.037659 
	C589.214600,298.258728 602.038391,291.176270 603.639771,275.127991 
M27.177723,16.051178 
	C17.364569,18.658562 12.310991,25.576851 13.357756,34.970551 
	C14.393698,44.267139 20.511976,49.556065 30.713558,49.944050 
	C32.377270,50.007328 34.044758,49.979851 35.710499,49.980068 
	C55.201241,49.982658 74.692497,50.061172 94.182381,49.931774 
	C99.537910,49.896217 103.887772,51.623032 106.054184,56.480804 
	C107.209831,59.072124 107.145485,62.333752 107.149544,65.293503 
	C107.211021,110.105469 107.192314,154.917542 107.192635,199.729584 
	C107.192818,224.551132 107.199318,249.372665 107.190079,274.194214 
	C107.187492,281.131744 109.417542,286.957520 115.538483,290.761078 
	C127.675613,298.303162 142.875885,290.815704 143.934021,276.527405 
	C144.498566,268.904144 144.206253,261.213409 144.208115,253.553146 
	C144.223465,190.249878 144.210083,126.946625 144.224747,63.643364 
	C144.227036,53.760319 147.969528,50.025063 157.811142,49.987961 
	C165.807220,49.957817 173.803574,49.998314 181.799713,49.977619 
	C195.125168,49.943130 208.466431,50.271465 221.771408,49.725292 
	C234.518677,49.202011 241.497482,36.492886 235.789337,25.121178 
	C231.983612,17.539452 225.344299,15.724087 217.462448,15.735376 
	C156.158371,15.823186 94.854103,15.781967 33.549896,15.793136 
	C31.720394,15.793468 29.890917,15.931039 27.177723,16.051178 
M490.308655,67.500183 
	C490.302124,56.008282 490.463531,44.513046 490.235565,33.025536 
	C490.055573,23.955597 484.026093,17.216656 475.656342,16.061411 
	C466.275940,14.766666 458.478058,19.018791 455.846344,27.329596 
	C454.914856,30.271193 454.740234,33.549030 454.737274,36.673847 
	C454.677155,99.963005 454.571045,163.252747 454.835602,226.540863 
	C454.871368,235.100937 455.868195,243.919128 458.116302,252.154770 
	C463.230621,270.890411 473.758850,285.637787 493.301971,291.546722 
	C503.458252,294.617554 513.964661,295.582977 523.925354,290.238739 
	C531.098572,286.390045 534.379700,278.922943 532.478760,271.291565 
	C530.398560,262.940063 524.503967,258.251007 515.970093,258.169708 
	C514.138184,258.152283 512.302185,258.085999 510.474670,258.176453 
	C503.557343,258.518860 498.856018,255.249542 495.374878,249.479553 
	C490.668488,241.678711 490.325104,233.075165 490.321075,224.391525 
	C490.296967,172.427750 490.308868,120.463966 490.308655,67.500183 
M771.244934,246.499847 
	C771.246948,256.327911 771.127686,266.158020 771.292664,275.983337 
	C771.406494,282.760284 772.973145,289.397125 780.065918,291.938324 
	C792.270935,296.311096 806.499634,293.391602 806.745300,275.144714 
	C806.772217,273.146088 806.750793,271.146912 806.755432,269.147980 
	C806.833801,235.502350 806.842285,201.856293 807.048157,168.211441 
	C807.091919,161.068741 809.467773,154.475922 813.914001,148.796616 
	C824.187012,135.674622 838.514404,130.047668 854.381592,129.332748 
	C866.226990,128.799011 878.191772,130.595184 890.085083,131.575974 
	C896.392456,132.096100 901.944641,129.506302 904.634766,124.208672 
	C908.029419,117.523895 907.626648,112.274353 902.125977,107.549591 
	C898.570374,104.495453 894.259766,101.647926 889.813843,100.413071 
	C863.094604,92.991783 838.474548,97.502472 816.452393,114.686775 
	C813.385681,117.079819 810.522766,119.734154 806.738708,122.975891 
	C806.738708,119.979782 806.859375,118.014572 806.716736,116.068665 
	C806.233276,109.474129 804.503235,103.654770 797.656799,100.697258 
	C784.790466,95.139206 772.526428,102.229103 771.323486,116.071953 
	C771.165344,117.891930 771.247620,119.734299 771.247498,121.566292 
	C771.244202,162.877472 771.244934,204.188660 771.244934,246.499847 
z"/>
<path fill="#01ADB5" opacity="1.000000" stroke="none" 
	d="
M214.975037,169.195496 
	C220.123291,151.556366 228.638321,136.383087 242.017975,124.187378 
	C267.673615,100.801949 297.774139,93.446976 331.383850,100.354721 
	C368.865662,108.058289 398.621185,139.066879 405.095917,176.759552 
	C406.385040,184.264206 407.090698,191.953552 407.166595,199.566696 
	C407.418945,224.895782 406.903595,250.236160 407.414551,275.557434 
	C407.666382,288.036713 399.597198,295.606323 387.378479,295.403900 
	C357.556213,294.909760 327.698761,295.856995 297.898834,294.888611 
	C266.660919,293.873535 242.756348,278.695312 226.452164,252.332947 
	C212.001968,228.968323 208.848526,203.275726 213.605865,176.450073 
	C214.011734,174.161530 214.466293,171.881638 214.975037,169.195496 
M247.967728,213.403702 
	C250.188446,224.234573 255.317215,233.517212 262.354553,242.008591 
	C287.143646,271.919556 338.164246,269.872742 359.896423,237.660446 
	C376.234497,213.443542 377.062347,187.754089 363.950195,162.103027 
	C346.262024,127.500076 298.077484,118.867874 269.018555,144.626785 
	C248.345108,162.952484 243.116470,186.244904 247.967728,213.403702 
z"/>
<path fill="#02ACB4" opacity="1.000000" stroke="none" 
	d="
M603.636841,275.581848 
	C602.038391,291.176270 589.214600,298.258728 576.553955,291.037659 
	C571.747803,288.296417 570.001526,283.790009 569.174072,278.729645 
	C568.960938,277.426300 569.029480,276.071045 569.029358,274.739624 
	C569.023621,194.906586 569.019226,115.073555 569.030212,35.240520 
	C569.031677,24.584000 572.604065,19.514042 581.422729,16.686750 
	C590.409546,13.805534 602.691895,19.812693 603.182068,30.925962 
	C603.291809,33.414738 603.621155,35.899662 603.622681,38.386501 
	C603.650391,82.552979 603.642822,126.719482 603.642883,170.885986 
	C603.642883,172.861404 603.642944,174.836807 603.642944,177.971878 
	C607.333801,174.957062 610.292358,172.727310 613.042175,170.264435 
	C633.365295,152.062134 653.640686,133.806549 673.945251,115.583595 
	C679.513184,110.586494 685.118774,105.631126 690.726196,100.678291 
	C697.475220,94.717239 706.938171,95.251740 712.984497,101.910057 
	C719.692932,109.297508 719.735657,117.979858 712.601990,124.408157 
	C693.821472,141.331696 674.866882,158.061935 656.002502,174.892639 
	C652.918030,177.644653 649.939880,180.515869 646.704163,183.525833 
	C654.953979,193.657150 662.996826,203.546936 671.053345,213.425537 
	C686.067566,231.835587 701.174377,250.171066 716.067017,268.678925 
	C722.012207,276.067261 720.409119,285.833649 712.713806,292.059570 
	C705.304993,298.053711 695.570007,297.358124 689.630615,290.024933 
	C668.005859,263.325043 646.507324,236.522873 624.943359,209.773697 
	C624.011047,208.617279 622.901917,207.603363 621.464844,206.091324 
	C615.919861,210.975006 610.347351,215.624725 605.147949,220.659821 
	C603.978394,221.792450 603.718994,224.267914 603.706665,226.129593 
	C603.598633,242.461823 603.641602,258.795044 603.636841,275.581848 
z"/>
<path fill="#01ACB4" opacity="1.000000" stroke="none" 
	d="
M27.619576,16.027901 
	C29.890917,15.931039 31.720394,15.793468 33.549896,15.793136 
	C94.854103,15.781967 156.158371,15.823186 217.462448,15.735376 
	C225.344299,15.724087 231.983612,17.539452 235.789337,25.121178 
	C241.497482,36.492886 234.518677,49.202011 221.771408,49.725292 
	C208.466431,50.271465 195.125168,49.943130 181.799713,49.977619 
	C173.803574,49.998314 165.807220,49.957817 157.811142,49.987961 
	C147.969528,50.025063 144.227036,53.760319 144.224747,63.643364 
	C144.210083,126.946625 144.223465,190.249878 144.208115,253.553146 
	C144.206253,261.213409 144.498566,268.904144 143.934021,276.527405 
	C142.875885,290.815704 127.675613,298.303162 115.538483,290.761078 
	C109.417542,286.957520 107.187492,281.131744 107.190079,274.194214 
	C107.199318,249.372665 107.192818,224.551132 107.192635,199.729584 
	C107.192314,154.917542 107.211021,110.105469 107.149544,65.293503 
	C107.145485,62.333752 107.209831,59.072124 106.054184,56.480804 
	C103.887772,51.623032 99.537910,49.896217 94.182381,49.931774 
	C74.692497,50.061172 55.201241,49.982658 35.710499,49.980068 
	C34.044758,49.979851 32.377270,50.007328 30.713558,49.944050 
	C20.511976,49.556065 14.393698,44.267139 13.357756,34.970551 
	C12.310991,25.576851 17.364569,18.658562 27.619576,16.027901 
z"/>
<path fill="#00ACB4" opacity="1.000000" stroke="none" 
	d="
M490.308655,68.000183 
	C490.308868,120.463966 490.296967,172.427750 490.321075,224.391525 
	C490.325104,233.075165 490.668488,241.678711 495.374878,249.479553 
	C498.856018,255.249542 503.557343,258.518860 510.474670,258.176453 
	C512.302185,258.085999 514.138184,258.152283 515.970093,258.169708 
	C524.503967,258.251007 530.398560,262.940063 532.478760,271.291565 
	C534.379700,278.922943 531.098572,286.390045 523.925354,290.238739 
	C513.964661,295.582977 503.458252,294.617554 493.301971,291.546722 
	C473.758850,285.637787 463.230621,270.890411 458.116302,252.154770 
	C455.868195,243.919128 454.871368,235.100937 454.835602,226.540863 
	C454.571045,163.252747 454.677155,99.963005 454.737274,36.673847 
	C454.740234,33.549030 454.914856,30.271193 455.846344,27.329596 
	C458.478058,19.018791 466.275940,14.766666 475.656342,16.061411 
	C484.026093,17.216656 490.055573,23.955597 490.235565,33.025536 
	C490.463531,44.513046 490.302124,56.008282 490.308655,68.000183 
z"/>
<path fill="#02ABB3" opacity="1.000000" stroke="none" 
	d="
M771.244934,245.999847 
	C771.244934,204.188660 771.244202,162.877472 771.247498,121.566292 
	C771.247620,119.734299 771.165344,117.891930 771.323486,116.071953 
	C772.526428,102.229103 784.790466,95.139206 797.656799,100.697258 
	C804.503235,103.654770 806.233276,109.474129 806.716736,116.068665 
	C806.859375,118.014572 806.738708,119.979782 806.738708,122.975891 
	C810.522766,119.734154 813.385681,117.079819 816.452393,114.686775 
	C838.474548,97.502472 863.094604,92.991783 889.813843,100.413071 
	C894.259766,101.647926 898.570374,104.495453 902.125977,107.549591 
	C907.626648,112.274353 908.029419,117.523895 904.634766,124.208672 
	C901.944641,129.506302 896.392456,132.096100 890.085083,131.575974 
	C878.191772,130.595184 866.226990,128.799011 854.381592,129.332748 
	C838.514404,130.047668 824.187012,135.674622 813.914001,148.796616 
	C809.467773,154.475922 807.091919,161.068741 807.048157,168.211441 
	C806.842285,201.856293 806.833801,235.502350 806.755432,269.147980 
	C806.750793,271.146912 806.772217,273.146088 806.745300,275.144714 
	C806.499634,293.391602 792.270935,296.311096 780.065918,291.938324 
	C772.973145,289.397125 771.406494,282.760284 771.292664,275.983337 
	C771.127686,266.158020 771.246948,256.327911 771.244934,245.999847 
z"/>
<path fill="#222932" opacity="1.000000" stroke="none" 
	d="
M247.899750,212.984100 
	C243.116470,186.244904 248.345108,162.952484 269.018555,144.626785 
	C298.077484,118.867874 346.262024,127.500076 363.950195,162.103027 
	C377.062347,187.754089 376.234497,213.443542 359.896423,237.660446 
	C338.164246,269.872742 287.143646,271.919556 262.354553,242.008591 
	C255.317215,233.517212 250.188446,224.234573 247.899750,212.984100 
z"/>
</svg>